<?xml version="1.0" encoding="utf-8"?>
<!-- Generator: Adobe Illustrator 25.4.1, SVG Export Plug-In . SVG Version: 6.00 Build 0)  -->
<svg version="1.0"
	 id="svg11010" xmlns:cc="http://creativecommons.org/ns#" xmlns:dc="http://purl.org/dc/elements/1.1/" xmlns:inkscape="http://www.inkscape.org/namespaces/inkscape" xmlns:rdf="http://www.w3.org/1999/02/22-rdf-syntax-ns#" xmlns:sodipodi="http://sodipodi.sourceforge.net/DTD/sodipodi-0.dtd" xmlns:svg="http://www.w3.org/2000/svg"
	 xmlns="http://www.w3.org/2000/svg" xmlns:xlink="http://www.w3.org/1999/xlink" x="0px" y="0px" viewBox="0 0 55.6 55.6"
	 enable-background="new 0 0 55.6 55.6" xml:space="preserve">
<rect fill="#F5A600" width="55.6" height="55.6"/>
<path id="path10749" inkscape:connector-curvature="0" fill="#FFFFFF" d="M36.2,25.9c-3.8-1.1-5.8-5.3-4.6-9.3
	c0.4-1.4,1.2-2.6,2.1-3.5c0,0,2.5-2.5,6.5-1.1c0,0-0.1,0-0.1,0c-2.4,0-4.3,2.1-4.3,4.8c0,2.6,1.9,4.8,4.3,4.8c1.9,0,3.5-1.3,4.1-3.2
	c0,0,0.1-0.4,0.2-1.1c0-0.1,0-0.2,0-0.2c0.2-1.7-0.1-4.6-3.4-7C36.6,7,30.4,7.4,30.4,7.4c-11,0-20,9.1-20,20.4
	c0,11.3,9,20.4,20,20.4h14.8V20.7C44,24.7,40,27,36.2,25.9"/>
</svg>
